<svg width="160" height="62" viewBox="0 0 160 62" fill="none" xmlns="http://www.w3.org/2000/svg">
<path d="M0 0.912598V60.7599H27.1088V50.581H13.0971V0.912598H0Z" fill="#F4F4F4"/>
<path d="M45.4158 0.912598H32.4863V60.7599H45.4158V0.912598Z" fill="#F4F4F4"/>
<path d="M53.9829 0.912598H70.6572L82.7534 40.1503H83.2562L83.17 0.912598H95.0652V60.7599H78.501L66.4048 21.8549H65.902L65.9882 60.7599H53.9829V0.912598Z" fill="#F4F4F4"/>
<path d="M139.73 44.0373C138.81 49.0031 140.065 53.3085 143.235 53.3085C145.739 53.3085 146.989 50.9895 146.989 48.01C146.989 43.5383 144.068 40.0645 139.734 37.1658C133.145 32.8604 126.637 26.5687 126.637 17.383C126.632 6.3725 134.141 0 142.9 0C151.16 0 158.166 5.63118 159.167 16.9696H146.151C146.649 12.5834 145.486 8.85782 142.981 8.85782C140.893 8.85782 139.476 11.3431 139.476 14.7361C139.476 17.9627 141.726 21.1086 146.568 24.0881C153.99 28.6406 159.995 34.8515 159.995 44.617C159.995 55.2949 152.903 62 143.311 62C136.219 62 126.877 57.6946 126.043 44.0373H139.73Z" fill="#F4F4F4"/>
<path d="M109.872 0.82666H124.138L110.71 29.2202L125.555 60.7595H110.624L97.0239 29.5053L109.872 0.82666Z" fill="#FA7F16"/>
</svg>
